<svg width="151" height="85" viewBox="0 0 151 85" fill="none" xmlns="http://www.w3.org/2000/svg">
        <path d="M10.9773 56.6887V71.6205H2.64205V36.7115H10.7045V50.2455H10.9943C11.5852 48.6319 12.5511 47.3705 13.892 46.4615C15.2443 45.5524 16.8977 45.0978 18.8523 45.0978C20.6932 45.0978 22.2955 45.5069 23.6591 46.3251C25.0227 47.1319 26.0795 48.274 26.8295 49.7512C27.5909 51.2285 27.9659 52.9558 27.9545 54.933V71.6205H19.6193V56.5694C19.6307 55.1149 19.267 53.9785 18.5284 53.1603C17.7898 52.3421 16.75 51.933 15.4091 51.933C14.5341 51.933 13.7614 52.1262 13.0909 52.5126C12.4318 52.8876 11.9148 53.4274 11.5398 54.1319C11.1761 54.8365 10.9886 55.6887 10.9773 56.6887ZM40.5384 72.0637C38.8679 72.0637 37.3849 71.7853 36.0895 71.2285C34.8054 70.6603 33.7884 69.808 33.0384 68.6717C32.2997 67.524 31.9304 66.0865 31.9304 64.3592C31.9304 62.9046 32.1861 61.6774 32.6974 60.6774C33.2088 59.6774 33.9134 58.8649 34.8111 58.2399C35.7088 57.6149 36.7429 57.1433 37.9134 56.8251C39.0838 56.4955 40.3338 56.274 41.6634 56.1603C43.152 56.024 44.3509 55.8819 45.2599 55.7342C46.169 55.5751 46.8281 55.3535 47.2372 55.0694C47.6577 54.774 47.8679 54.3592 47.8679 53.8251V53.7399C47.8679 52.8649 47.5668 52.1887 46.9645 51.7115C46.3622 51.2342 45.5497 50.9955 44.527 50.9955C43.4247 50.9955 42.5384 51.2342 41.8679 51.7115C41.1974 52.1887 40.7713 52.8478 40.5895 53.6887L32.902 53.416C33.1293 51.8251 33.7145 50.4046 34.6577 49.1546C35.6122 47.8933 36.919 46.9046 38.5781 46.1887C40.2486 45.4615 42.2543 45.0978 44.5952 45.0978C46.2656 45.0978 47.8054 45.2967 49.2145 45.6944C50.6236 46.0808 51.8509 46.649 52.8963 47.399C53.9418 48.1376 54.7486 49.0467 55.3168 50.1262C55.8963 51.2058 56.1861 52.4387 56.1861 53.8251V71.6205H48.3452V67.9728H48.1406C47.6747 68.8592 47.0781 69.6092 46.3509 70.2228C45.6349 70.8365 44.7884 71.2967 43.8111 71.6035C42.8452 71.9103 41.7543 72.0637 40.5384 72.0637ZM43.1122 66.6092C44.0099 66.6092 44.8168 66.4274 45.5327 66.0637C46.2599 65.7001 46.8395 65.2001 47.2713 64.5637C47.7031 63.916 47.919 63.166 47.919 62.3137V59.8251C47.6804 59.9501 47.3906 60.0637 47.0497 60.166C46.7202 60.2683 46.3565 60.3649 45.9588 60.4558C45.5611 60.5467 45.152 60.6262 44.7315 60.6944C44.3111 60.7626 43.9077 60.8251 43.5213 60.8819C42.7372 61.0069 42.0668 61.2001 41.5099 61.4615C40.9645 61.7228 40.544 62.0637 40.2486 62.4842C39.9645 62.8933 39.8224 63.3819 39.8224 63.9501C39.8224 64.8137 40.1293 65.4728 40.7429 65.9274C41.3679 66.3819 42.1577 66.6092 43.1122 66.6092ZM61.2827 71.6205V36.7115H69.6179V49.9217H69.7884C70.1293 49.1262 70.6122 48.3592 71.2372 47.6205C71.8736 46.8819 72.6804 46.2796 73.6577 45.8137C74.6463 45.3365 75.8281 45.0978 77.2031 45.0978C79.0213 45.0978 80.7202 45.5751 82.2997 46.5296C83.8906 47.4842 85.1747 48.9558 86.152 50.9444C87.1293 52.933 87.6179 55.4671 87.6179 58.5467C87.6179 61.5126 87.1463 63.9955 86.2031 65.9955C85.2713 67.9955 84.0099 69.4955 82.419 70.4955C80.8395 71.4955 79.0838 71.9955 77.152 71.9955C75.8338 71.9955 74.6918 71.7796 73.7259 71.3478C72.7599 70.916 71.9474 70.3478 71.2884 69.6433C70.6406 68.9387 70.1406 68.183 69.7884 67.3762H69.5327V71.6205H61.2827ZM69.4474 58.5296C69.4474 59.9387 69.6349 61.166 70.0099 62.2115C70.3963 63.2569 70.9474 64.0694 71.6634 64.649C72.3906 65.2171 73.2599 65.5012 74.2713 65.5012C75.294 65.5012 76.1634 65.2171 76.8793 64.649C77.5952 64.0694 78.1349 63.2569 78.4986 62.2115C78.8736 61.166 79.0611 59.9387 79.0611 58.5296C79.0611 57.1205 78.8736 55.899 78.4986 54.8649C78.1349 53.8308 77.5952 53.0296 76.8793 52.4615C76.1747 51.8933 75.3054 51.6092 74.2713 51.6092C73.2486 51.6092 72.3793 51.8876 71.6634 52.4444C70.9474 53.0012 70.3963 53.7967 70.0099 54.8308C69.6349 55.8649 69.4474 57.0978 69.4474 58.5296ZM91.9858 71.6205V45.4387H100.321V71.6205H91.9858ZM96.1619 42.3876C94.9915 42.3876 93.9858 42.0012 93.1449 41.2285C92.304 40.4444 91.8835 39.5012 91.8835 38.399C91.8835 37.308 92.304 36.3762 93.1449 35.6035C93.9858 34.8194 94.9915 34.4274 96.1619 34.4274C97.3438 34.4274 98.3494 34.8194 99.179 35.6035C100.02 36.3762 100.44 37.308 100.44 38.399C100.44 39.5012 100.02 40.4444 99.179 41.2285C98.3494 42.0012 97.3438 42.3876 96.1619 42.3876ZM120.405 45.4387V51.5751H103.888V45.4387H120.405ZM107.348 39.166H115.683V63.3876C115.683 63.899 115.763 64.3137 115.922 64.6319C116.092 64.9387 116.337 65.1603 116.655 65.2967C116.973 65.4217 117.354 65.4842 117.797 65.4842C118.115 65.4842 118.45 65.4558 118.803 65.399C119.166 65.3308 119.439 65.274 119.621 65.2285L120.882 71.2455C120.484 71.3592 119.922 71.5012 119.195 71.6717C118.479 71.8421 117.621 71.9501 116.621 71.9955C114.666 72.0865 112.99 71.8592 111.592 71.3137C110.206 70.7569 109.143 69.8933 108.405 68.7228C107.678 67.5524 107.325 66.0808 107.348 64.308V39.166ZM147.188 53.433L139.534 53.6376C139.455 53.0921 139.239 52.6092 138.886 52.1887C138.534 51.7569 138.074 51.4217 137.506 51.183C136.949 50.933 136.301 50.808 135.562 50.808C134.597 50.808 133.773 51.0012 133.091 51.3876C132.42 51.774 132.091 52.2967 132.102 52.9558C132.091 53.4671 132.295 53.9103 132.716 54.2853C133.148 54.6603 133.915 54.9615 135.017 55.1887L140.062 56.1433C142.676 56.6433 144.619 57.4728 145.892 58.6319C147.176 59.791 147.824 61.3251 147.835 63.2342C147.824 65.0296 147.29 66.5921 146.233 67.9217C145.188 69.2512 143.756 70.2853 141.938 71.024C140.119 71.7512 138.04 72.1149 135.699 72.1149C131.96 72.1149 129.011 71.3478 126.852 69.8137C124.705 68.2683 123.477 66.2001 123.17 63.6092L131.403 63.4046C131.585 64.3592 132.057 65.0865 132.818 65.5865C133.58 66.0865 134.551 66.3365 135.733 66.3365C136.801 66.3365 137.67 66.1376 138.341 65.7399C139.011 65.3421 139.352 64.8137 139.364 64.1546C139.352 63.5637 139.091 63.0921 138.58 62.7399C138.068 62.3762 137.267 62.0921 136.176 61.8876L131.608 61.0183C128.983 60.541 127.028 59.6603 125.744 58.3762C124.46 57.0808 123.824 55.433 123.835 53.433C123.824 51.683 124.29 50.1887 125.233 48.9501C126.176 47.7001 127.517 46.7455 129.256 46.0865C130.994 45.4274 133.045 45.0978 135.409 45.0978C138.955 45.0978 141.75 45.8421 143.795 47.3308C145.841 48.808 146.972 50.8421 147.188 53.433Z" fill="white"/>
        <rect x="0.5" y="1.12054" width="15" height="15" rx="3.5" fill="#18181B" stroke="#27272A"/>
        <rect x="20.5" y="1.12054" width="15" height="15" rx="3.5" fill="#4C1D95" stroke="#6D28D9"/>
        <rect x="40.5" y="1.12054" width="15" height="15" rx="3.5" fill="#5B21B6" stroke="#7C3AED"/>
        <rect x="60.5" y="1.12054" width="15" height="15" rx="3.5" fill="#6D28D9" stroke="#8B5CF6"/>
        <rect x="80.5" y="1.12054" width="15" height="15" rx="3.5" fill="#7C3AED" stroke="#A78BFA"/>
        <rect x="100.5" y="1.12054" width="15" height="15" rx="3.5" fill="#8B5CF6" stroke="#C4B5FD"/>
        </svg>